<svg xmlns="http://www.w3.org/2000/svg" width="29" height="28" viewBox="0 0 29 28" fill="none">
  <path fill="#00bc91" fill-rule="evenodd" clip-rule="evenodd" d="m17.55,12.93c.27,0,.57.33.57.6,0,.75-2.16,1.2-2.73,1.29-.48,1.14-.87,3.39-1.17,4.71-.21.93-.12,1.86-.18,2.79-.03.24-.42.54-.66.54-.57,0-.87-.57-.87-1.08,0-.72,0-1.41.12-2.13.21-1.35.66-2.85.75-4.2v-.18c-.06-.12-.18-.15-.3-.15-1.2,0-2.46.36-3.69.45-.36.03-.66.24-.87.51-2.13,2.61-4.23,5.25-6.57,7.68-.27.3-.66.6-1.08.6-.6,0-.87-.45-.87-.99,0-1.02,2.01-4.47,2.01-6.84,0-.63-.39-.96-1.05-.96-.36-.27-.87-.3-.87-.93,0-.54.57-.84,1.02-.84.3,0,.6.06.87.18.69.33,1.2.36,1.95.36h2.31c.75,0,1.38-.06,1.86-.69,1.44-1.92,2.88-3.81,4.32-5.73,1.2-1.56,2.4-3.15,3.6-4.71.57-.75,1.2-1.47,1.74-2.22.15-.21.24-.45.42-.66.15-.18.39-.33.63-.33.45,0,.75.36.75.78,0,.27-.09.48-.18.72-.45,1.26-3.54,10.98-3.54,11.55,0,.09,0,.18.06.27.54-.06,1.14-.39,1.65-.39Zm-11.49,2.97c-.36-.03-.72-.03-1.08-.03-.45,0-.9,0-1.35.06.03.15.03.33.03.48,0,1.05-.39,2.07-.57,3.09.57-.57,2.88-3,2.97-3.6Zm4.26-2.07l.06.12.33.03c.6,0,2.55-.24,3.09-.42.54-2.07,2.52-6.51,3-8.7-.6.66-6.33,8.64-6.48,8.97Z"/>
  <path fill="#8bffe5" fill-rule="evenodd" clip-rule="evenodd" d="m23.31,17.64c0,3.06-5.52,7.65-8.37,7.65-1.08,0-2.01-.66-2.01-1.77,0-2.79,6.09-5.91,8.07-7.05-.03-.51-1.62-.81-1.62-1.95,0-1.38,2.64-3.48,3.93-3.48.42,0,.9.3.9.78,0,.24-.12.42-.3.57-.96.81-1.59.99-2.58,2.07.12.24,1.05.99,1.32,1.26.54-.27,3.45-.93,3.75-.93s.48.15.48.45c0,.06-.06.21-.09.27-.42.51-2.76.66-3.6,1.14.09.33.12.66.12.99Zm-8.79,5.31c-.03.09-.09.18-.09.27,0,.06.06.15.09.21h.21c.15,0,1.05-.39,1.23-.48,1.65-.84,5.34-3.66,5.73-5.49-2.13.78-6.06,3.39-7.17,5.49Z"/>
  <path fill="#00e9b4" fill-rule="evenodd" clip-rule="evenodd" d="m13.38,22.86c.24,0,.63-.3.66-.54.02-.36.02-.72.03-1.09-.46.51-.81,1.03-.99,1.55.09.04.19.08.3.08Z"/>
</svg>